<?xml version="1.0" encoding="UTF-8" standalone="no"?>
<!-- Created with Inkscape (http://www.inkscape.org/) -->

<svg
   width="128mm"
   height="128mm"
   viewBox="0 0 128 128"
   version="1.1"
   id="svg1"
   xml:space="preserve"
   inkscape:version="1.4.3 (0d15f75, 2025-12-25)"
   sodipodi:docname="icon.svg"
   inkscape:export-filename="icon16.png"
   inkscape:export-xdpi="3.175"
   inkscape:export-ydpi="3.175"
   xmlns:inkscape="http://www.inkscape.org/namespaces/inkscape"
   xmlns:sodipodi="http://sodipodi.sourceforge.net/DTD/sodipodi-0.dtd"
   xmlns="http://www.w3.org/2000/svg"
   xmlns:svg="http://www.w3.org/2000/svg"><sodipodi:namedview
     id="namedview1"
     pagecolor="#ffffff"
     bordercolor="#666666"
     borderopacity="1.0"
     inkscape:showpageshadow="2"
     inkscape:pageopacity="0.0"
     inkscape:pagecheckerboard="0"
     inkscape:deskcolor="#d1d1d1"
     inkscape:document-units="mm"
     inkscape:zoom="0.41046262"
     inkscape:cx="-53.598059"
     inkscape:cy="68.215712"
     inkscape:window-width="1325"
     inkscape:window-height="731"
     inkscape:window-x="0"
     inkscape:window-y="30"
     inkscape:window-maximized="0"
     inkscape:current-layer="g1" /><defs
     id="defs1" /><g
     inkscape:label="Слой 1"
     inkscape:groupmode="layer"
     id="layer1"
     transform="translate(-40.999998,-84.499998)"><g
       id="g1"
       transform="translate(-49.087899,-20.92529)"><circle
         style="fill:#009688;fill-opacity:1;stroke:none;stroke-width:2.29112"
         id="path16385"
         cx="154.08791"
         cy="169.42529"
         r="64" /><g
         id="g16397"
         transform="matrix(0.99301905,0,0,0.99301905,6.5394777,6.2740654)"><path
           sodipodi:type="star"
           style="fill:#ffffff;fill-opacity:1;stroke:none;stroke-width:0.529167"
           id="path16386"
           inkscape:flatsided="false"
           sodipodi:sides="3"
           sodipodi:cx="149.66815"
           sodipodi:cy="211.69374"
           sodipodi:r1="22.905981"
           sodipodi:r2="11.452991"
           sodipodi:arg1="0.47089386"
           sodipodi:arg2="1.5180914"
           inkscape:rounded="0"
           inkscape:randomized="0"
           d="m 170.08112,222.0858 -19.80962,1.04503 -19.80961,1.04503 8.99978,-17.67815 8.99978,-17.67814 10.80984,16.63311 z"
           inkscape:transform-center-x="0.64771943"
           inkscape:transform-center-y="-0.60925367"
           transform="matrix(0.44979223,0.10303644,-0.0781557,0.27623894,57.074075,90.217959)" /><path
           style="fill:#ffffff;fill-opacity:1;stroke:none;stroke-width:1.68042"
           d="m 102.58936,173.65747 a 46.940523,46.940523 0 0 0 37.78618,36.85708 46.940523,46.940523 0 0 0 42.15544,-13.79256 l -3.88551,-5.18039 a 40.56722,40.56722 0 0 1 -37.15491,12.69806 40.56722,40.56722 0 0 1 -32.06761,-29.36789 z"
           id="path16395" /><path
           sodipodi:type="star"
           style="fill:#ffffff;fill-opacity:1;stroke:none;stroke-width:0.529167"
           id="path16396"
           inkscape:flatsided="false"
           sodipodi:sides="3"
           sodipodi:cx="149.66815"
           sodipodi:cy="211.69374"
           sodipodi:r1="22.905981"
           sodipodi:r2="11.452991"
           sodipodi:arg1="0.47089386"
           sodipodi:arg2="1.5180914"
           inkscape:rounded="0"
           inkscape:randomized="0"
           d="m 170.08112,222.0858 -19.80962,1.04503 -19.80961,1.04503 8.99978,-17.67815 8.99978,-17.67814 10.80984,16.63311 z"
           inkscape:transform-center-x="0.6477165"
           inkscape:transform-center-y="-0.60925606"
           transform="matrix(-0.44979223,-0.10303644,0.0781557,-0.27623894,240.09732,238.37841)" /><path
           style="fill:#ffffff;fill-opacity:1;stroke:none;stroke-width:1.68042"
           d="m 194.58202,154.9389 a 46.940523,46.940523 0 0 0 -37.78617,-36.85708 46.940523,46.940523 0 0 0 -42.15544,13.79256 l 3.88551,5.1804 a 40.56722,40.56722 0 0 1 37.15491,-12.69806 40.56722,40.56722 0 0 1 32.06761,29.36788 z"
           id="path16397" /></g><text
         xml:space="preserve"
         style="font-stretch:condensed;font-size:10.5833px;line-height:1.25;font-family:'Arial Narrow';-inkscape-font-specification:'Arial Narrow Condensed';stroke-width:0.264583"
         x="127.45158"
         y="145.22572"
         id="text16397"><tspan
           sodipodi:role="line"
           id="tspan16397"
           style="stroke-width:0.264583"
           x="127.45158"
           y="145.22572" /></text><circle
         style="fill:#ffffff;fill-opacity:1;stroke:none;stroke-width:0.680176"
         id="circle16398"
         cx="154.08791"
         cy="169.42529"
         r="19" /></g></g></svg>
